<?xml version="1.0" encoding="UTF-8" standalone="no"?><!DOCTYPE svg PUBLIC "-//W3C//DTD SVG 1.1//EN" "http://www.w3.org/Graphics/SVG/1.1/DTD/svg11.dtd"><svg width="100%" height="100%" viewBox="0 0 31 43" version="1.1" xmlns="http://www.w3.org/2000/svg" xmlns:xlink="http://www.w3.org/1999/xlink" xml:space="preserve" xmlns:serif="http://www.serif.com/" style="fill-rule:evenodd;clip-rule:evenodd;stroke-linejoin:round;stroke-miterlimit:2;"><g id="Layer2"><ellipse cx="15.12" cy="27.115" rx="15.12" ry="14.92" style="fill:#314376;"/><g id="Drawings"><path d="M22.763,3.177c0,-0.379 -0.308,-0.687 -0.687,-0.687l-13.912,0c-0.379,0 -0.687,0.308 -0.687,0.687l0,12.456c0,0.379 0.308,0.687 0.687,0.687l13.912,0c0.379,0 0.687,-0.308 0.687,-0.687l0,-12.456Z" style="fill:#edd892;"/><path d="M18.549,0.277c0,-0.153 -0.124,-0.277 -0.277,-0.277l-6.304,0c-0.153,0 -0.277,0.124 -0.277,0.277l0,1.744c0,0.153 0.124,0.278 0.277,0.278l6.304,0c0.153,0 0.277,-0.125 0.277,-0.278l0,-1.744Z" style="fill:#edd892;"/><circle cx="12.371" cy="7.437" r="0.838"/><circle cx="17.882" cy="7.437" r="0.838"/><rect x="10.533" y="9.52" width="9.194" height="5.349" style="fill:#fff;"/><path d="M10.566,10.359l-3.173,-0.954l-0.033,0.11l3.173,0.954l0.033,-0.11Z" style="fill:#fff;"/><path d="M22.901,13.998l-3.172,-0.953l-0.033,0.11l3.172,0.953l0.033,-0.11Z" style="fill:#fff;"/><path d="M19.69,10.344l3.173,-0.953l0.033,0.11l-3.172,0.953l-0.034,-0.11Z" style="fill:#fff;"/><path d="M7.327,13.984l3.172,-0.954l0.034,0.11l-3.173,0.954l-0.033,-0.11Z" style="fill:#fff;"/></g></g></svg>