<?xml version="1.0" encoding="UTF-8" standalone="no"?><!DOCTYPE svg PUBLIC "-//W3C//DTD SVG 1.1//EN" "http://www.w3.org/Graphics/SVG/1.1/DTD/svg11.dtd"><svg width="100%" height="100%" viewBox="0 0 110 45" version="1.1" xmlns="http://www.w3.org/2000/svg" xmlns:xlink="http://www.w3.org/1999/xlink" xml:space="preserve" xmlns:serif="http://www.serif.com/" style="fill-rule:evenodd;clip-rule:evenodd;stroke-linejoin:round;stroke-miterlimit:2;"><path d="M35.804,34.179c-0.76,-5.731 -3.581,-10.402 -6.462,-10.425c-2.884,0 -7.094,4.676 -9.55,10.433c-2.452,5.758 0.323,10.422 6.497,10.422c6.212,-0.064 10.275,-4.692 9.515,-10.43" style="fill:#df0615;fill-rule:nonzero;"/><path d="M6.372,18.926c-3.685,0 -6.372,2.912 -6.372,6.601c0,3.686 2.687,6.51 6.372,6.51c2.051,0 3.989,-0.918 5.266,-2.516c-0.138,-0.135 -0.492,-0.886 -1.68,-0.886c-1.118,0 -1.37,1.121 -3.586,1.121c-2.167,0 -3.967,-1.84 -3.967,-4.229c0,-2.389 1.8,-4.315 3.967,-4.315c1.979,0 2.454,1.175 3.469,1.175c1.019,0 1.613,-0.813 1.751,-0.941c-1.279,-1.6 -3.169,-2.52 -5.22,-2.52" style="fill:#261612;fill-rule:nonzero;"/><path d="M19.373,19.31l-5.182,0c-0.876,0 -1.489,0.524 -1.489,1.358l0,0.767l2.31,0c0,0 0.088,7.805 -0.011,8.649l-0.002,0c-0.031,0.645 -0.311,2.184 -1.794,2.881c-1.219,0.572 -1.232,1.116 -1.294,1.963c0.018,0.062 0.043,0.099 0.078,0.104l0.007,0c0.004,0 0.011,0 0.014,-0.007c0.044,-0.009 1.21,-0.295 1.379,-0.367l-0.004,-0.006c1.094,-0.338 2.771,-1.09 3.571,-2.642c0,0 0.747,-1.151 0.732,-3.619l0,-6.956l0.11,0c0.874,0 1.575,-0.527 1.575,-1.363l0,-0.764" style="fill:#261612;fill-rule:nonzero;"/><path d="M46.097,15.204c5.388,2.12 7.47,8.001 4.507,13.382c-2.993,5.4 -8.419,5.565 -12.263,0.628c-3.845,-4.936 -5.865,-10.84 -4.503,-13.393c1.394,-2.52 6.851,-2.742 12.259,-0.617" style="fill:#f49c00;fill-rule:nonzero;"/><path d="M18.614,16.926c4.796,3.278 10.169,4.269 12.073,2.144c1.919,-2.144 1.257,-8.396 -1.391,-14.069c-2.651,-5.669 -7.98,-6.716 -12.099,-2.121c-4.068,4.589 -3.365,10.782 1.417,14.046" style="fill:#0079c3;fill-rule:nonzero;"/><path d="M71.898,22.28c0,-1.214 0.845,-2.202 1.895,-2.202c1.046,0 1.895,0.988 1.895,2.202c0,1.217 -0.849,2.2 -1.895,2.2c-1.05,0 -1.895,-0.983 -1.895,-2.2m5.802,0c0,-1.845 -1.75,-3.336 -3.907,-3.336c-2.161,0 -3.911,1.491 -3.911,3.336c0,1.842 1.75,3.333 3.911,3.333c2.157,0 3.907,-1.491 3.907,-3.333" style="fill:#261612;fill-rule:nonzero;"/><path d="M81.454,24.502l0,-5.322l-0.837,0c-0.737,0 -1.142,0.456 -1.142,1.278l0,5.323l0.84,0c0.736,0 1.139,-0.456 1.139,-1.279" style="fill:#261612;fill-rule:nonzero;"/><path d="M108.918,22.083l-1.338,0l0.002,-2.903l-0.841,0c-0.733,0 -1.138,0.456 -1.138,1.278l0,3.5c-1.421,0.313 -3.063,0.408 -3.841,0.426l-2.383,0.003l0,-3.402l3.897,-0.003c0.133,-0.003 0.663,-0.045 0.663,-0.665l0,-0.61l-6.533,0l-0.005,4.788c0,0.646 0.59,1.168 1.31,1.168l1.544,0c2.584,0 4.205,-0.274 5.348,-0.602l0,1.1l0.836,0c0.737,0 1.143,-0.457 1.143,-1.279l-0.002,-1.523l1.997,0l0,-0.612c0,-0.618 -0.525,-0.664 -0.659,-0.664" style="fill:#261612;fill-rule:nonzero;"/><path d="M66.256,20.461l0,11.605l0.837,0c0.738,0 1.141,-0.456 1.141,-1.278l0,-11.603l-0.84,0c-0.735,0 -1.138,0.451 -1.138,1.276" style="fill:#261612;fill-rule:nonzero;"/><path d="M60.278,22.239l0,-1.204l1.476,0c0.136,-0.001 0.66,-0.045 0.66,-0.663l0,-0.612l-5.582,0c-0.136,0 -0.66,0.046 -0.66,0.663l0,0.612l2.127,0l0,1.204c-0.047,1.509 -0.376,4.06 -2.811,5.975c0,0 0.326,0.272 0.592,0.455c0.261,0.181 0.849,0.317 1.199,0c0.551,-0.499 1.379,-1.385 2.014,-2.613c0.636,1.228 1.467,2.114 2.017,2.613c0.347,0.317 0.935,0.181 1.199,0c0.267,-0.183 0.588,-0.455 0.588,-0.455c-2.43,-1.915 -2.772,-4.466 -2.819,-5.975" style="fill:#261612;fill-rule:nonzero;"/><path d="M63.326,20.461l0,2.593l-1.014,0c-0.136,0.003 -0.659,0.05 -0.659,0.664l0,0.613l1.673,0l0,7.735l0.838,0c0.737,0 1.141,-0.456 1.141,-1.278l0,-11.603l-0.839,0c-0.738,0 -1.14,0.451 -1.14,1.276" style="fill:#261612;fill-rule:nonzero;"/><path d="M74.097,29.812l6.047,0c0.722,0 1.308,-0.522 1.308,-1.166l0,-2.234l-8.673,0c-0.137,0 -0.66,0.046 -0.66,0.666l0,0.612l7.355,0l0,0.846l-6.218,0c-0.736,0 -1.14,0.455 -1.14,1.276l0.003,2.247l8.797,0c0.138,0 0.665,-0.049 0.665,-0.664l0,-0.611l-7.484,0l0,-0.972Z" style="fill:#261612;fill-rule:nonzero;"/><path d="M103.711,31.688c-1.085,0 -1.957,-0.998 -1.957,-2.237c0,-1.234 0.872,-2.235 1.957,-2.235c1.085,0 1.96,1.001 1.96,2.235c0,1.239 -0.875,2.237 -1.96,2.237m0.005,-5.619c-2.164,0 -3.912,1.515 -3.912,3.382c0,1.869 1.748,3.383 3.912,3.383c2.156,0 3.906,-1.514 3.906,-3.383c0,-1.867 -1.75,-3.382 -3.906,-3.382" style="fill:#261612;fill-rule:nonzero;"/><path d="M93.76,20.718l0,11.603l0.827,0c0.724,0 1.124,-0.456 1.124,-1.275l0,-11.605l-0.828,0c-0.726,0 -1.123,0.452 -1.123,1.277" style="fill:#261612;fill-rule:nonzero;"/><path d="M90.872,20.718l0,2.592l-1.155,0c-0.134,0.001 -0.652,0.049 -0.652,0.666l0,0.613l1.807,0l0,7.732l0.825,0c0.727,0 1.124,-0.456 1.124,-1.275l0,-11.605l-0.827,0c-0.725,0 -1.122,0.452 -1.122,1.277" style="fill:#261612;fill-rule:nonzero;"/><path d="M89.074,20.018l-4.589,0c-0.124,0 -0.611,0.046 -0.634,0.665l-0.022,0.645l3.431,0c-0.045,1.365 -0.53,4.03 -3.191,5.923c-0.257,0.184 -0.61,0.4 -0.918,0.548c0.015,-0.007 0.184,0.318 0.475,0.692c0.256,0.329 0.667,0.447 1.146,0.139c0.557,-0.357 1.294,-0.955 1.996,-1.779c0.205,-0.232 0.382,-0.445 0.513,-0.637c0.453,0.885 1.31,1.979 1.822,2.416c0.308,0.261 0.75,0.152 0.968,-0.038c0.216,-0.193 0.539,-0.582 0.539,-0.582c-1.099,-1.172 -2.001,-2.382 -2.349,-3.485c0.294,-0.847 0.724,-1.989 0.795,-3.306c0.034,-0.23 0.018,-1.201 0.018,-1.201" style="fill:#261612;fill-rule:nonzero;"/></svg>