<?xml version="1.0" encoding="UTF-8" standalone="no"?><!DOCTYPE svg PUBLIC "-//W3C//DTD SVG 1.1//EN" "http://www.w3.org/Graphics/SVG/1.1/DTD/svg11.dtd"><svg width="100%" height="100%" viewBox="0 0 190 211" version="1.1" xmlns="http://www.w3.org/2000/svg" xmlns:xlink="http://www.w3.org/1999/xlink" xml:space="preserve" xmlns:serif="http://www.serif.com/" style="fill-rule:evenodd;clip-rule:evenodd;stroke-linecap:round;stroke-linejoin:round;stroke-miterlimit:1.5;"><circle cx="82.14" cy="82.14" r="82.14" style="fill:#475387;"/><circle cx="133.141" cy="154.32" r="56.22" style="fill:#c6dbe2;"/><g id="Talk"><g id="Grid"><rect x="61.62" y="22.62" width="116.035" height="146.76" style="fill:#fff;stroke:#dcdcdc;stroke-width:0.24px;"/><path d="M61.62,61.14l116.035,0" style="fill:none;stroke:#dcdcdc;stroke-width:0.24px;"/><path d="M61.62,99.6l116.035,0" style="fill:none;stroke:#dcdcdc;stroke-width:0.24px;"/><path d="M61.62,138.24l116.035,0" style="fill:none;stroke:#dcdcdc;stroke-width:0.24px;"/></g><g id="ROW"><g id="Layer1"><circle cx="81.685" cy="82.86" r="12" style="fill:#d3d3d3;stroke:#fff;stroke-width:0.24px;"/><circle cx="82.14" cy="82.86" r="6.495" style="fill:#e8b2bf;"/></g><g id="Words"><text x="97.105px" y="80.129px" style="font-family:'AppleSDGothicNeo-Bold', 'Apple SD Gothic Neo';font-weight:700;font-size:6px;">미정이</text><g transform="matrix(0.24,0,0,0.24,-388.955,-92.388)"><text x="2025.25px" y="762.265px" style="font-family:'AppleSDGothicNeo-Regular', 'Apple SD Gothic Neo';font-size:25px;fill:#8c8c8c;">그래</text><text x="2068.5px" y="762.265px" style="font-family:'ArialMT', 'Arial', sans-serif;font-size:25px;fill:#8c8c8c;">~</text></g></g></g><g id="ROW1" serif:id="ROW"><g id="Layer11" serif:id="Layer1"><circle cx="81.6" cy="119.333" r="12" style="fill:#d3d3d3;stroke:#fff;stroke-width:0.24px;"/><circle cx="77.505" cy="115.268" r="4.095" style="fill:#d4e8b2;"/><circle cx="85.695" cy="115.268" r="4.095" style="fill:#b2d7e8;"/><circle cx="85.695" cy="123.354" r="4.095" style="fill:#e8b2bf;"/><circle cx="77.505" cy="123.354" r="4.095" style="fill:#b2d7e8;"/></g><g id="Alert"><path d="M172.116,119.616c0,-2.733 -2.22,-4.952 -4.953,-4.952l-5.215,0c-2.733,0 -4.952,2.219 -4.952,4.952c0,2.734 2.219,4.953 4.952,4.953l5.215,0c2.733,0 4.953,-2.219 4.953,-4.953Z" style="fill:#f55327;"/><text x="159.592px" y="121.489px" style="font-family:'ArialMT', 'Arial', sans-serif;font-size:6px;fill:#fff;">985</text></g><g id="Words1" serif:id="Words"><g transform="matrix(0.24,0,0,0.24,-389.04,-66.3414)"><text x="2025.25px" y="762.265px" style="font-family:'AppleSDGothicNeo-Bold', 'Apple SD Gothic Neo';font-weight:700;font-size:25px;">취준생</text><text x="2097.07px" y="762.265px" style="font-family:'AppleSDGothicNeo-Bold', 'Apple SD Gothic Neo';font-weight:700;font-size:25px;">정보공유방</text></g><g transform="matrix(0.24,0,0,0.24,-389.04,-55.9149)"><text x="2025.25px" y="762.265px" style="font-family:'AppleSDGothicNeo-Regular', 'Apple SD Gothic Neo';font-size:25px;fill:#8c8c8c;">중소기업은</text><text x="2140.32px" y="762.265px" style="font-family:'AppleSDGothicNeo-Regular', 'Apple SD Gothic Neo';font-size:25px;fill:#8c8c8c;">안쓰세요</text><text x="2226.82px" y="762.265px" style="font-family:'ArialMT', 'Arial', sans-serif;font-size:25px;fill:#8c8c8c;">?...</text></g></g></g><g id="ROW2" serif:id="ROW"><g id="Layer12" serif:id="Layer1"><circle cx="81.655" cy="41.94" r="12" style="fill:#2c3147;stroke:#fff;stroke-width:0.24px;"/><g id="Drawings"><path d="M87.954,37.836c0,-0.312 -0.254,-0.565 -0.566,-0.565l-11.457,0c-0.312,0 -0.566,0.253 -0.566,0.565l0,10.258c0,0.312 0.254,0.566 0.566,0.566l11.457,0c0.312,0 0.566,-0.254 0.566,-0.566l0,-10.258Z" style="fill:#edd892;"/><path d="M84.483,35.448c0,-0.126 -0.102,-0.228 -0.228,-0.228l-5.191,0c-0.126,0 -0.228,0.102 -0.228,0.228l0,1.437c0,0.126 0.102,0.228 0.228,0.228l5.191,0c0.126,0 0.228,-0.102 0.228,-0.228l0,-1.437Z" style="fill:#edd892;"/><circle cx="79.396" cy="41.345" r="0.69"/><circle cx="83.934" cy="41.345" r="0.69"/><rect x="77.882" y="43.06" width="7.572" height="4.405" style="fill:#fff;"/><path d="M77.909,43.751l-2.613,-0.786l-0.027,0.091l2.613,0.785l0.027,-0.09Z" style="fill:#fff;"/><path d="M88.068,46.748l-2.613,-0.785l-0.027,0.09l2.612,0.786l0.028,-0.091Z" style="fill:#fff;"/><path d="M85.423,43.739l2.613,-0.786l0.027,0.091l-2.612,0.786l-0.028,-0.091Z" style="fill:#fff;"/><path d="M75.242,46.736l2.612,-0.785l0.028,0.09l-2.613,0.786l-0.027,-0.091Z" style="fill:#fff;"/></g></g><g id="Alert1" serif:id="Alert"><circle cx="164.607" cy="42.223" r="4.953" style="fill:#f55327;"/><text x="163.007px" y="44.096px" style="font-family:'ArialMT', 'Arial', sans-serif;font-size:6px;fill:#fff;">2</text></g><g id="Words2" serif:id="Words"><g transform="matrix(0.24,0,0,0.24,-388.985,-143.735)"><text x="2025.25px" y="762.265px" style="font-family:'AppleSDGothicNeo-Bold', 'Apple SD Gothic Neo';font-weight:700;font-size:25px;">고독한</text><text x="2097.07px" y="762.265px" style="font-family:'AppleSDGothicNeo-Bold', 'Apple SD Gothic Neo';font-weight:700;font-size:25px;">하이닉스봇</text></g><g transform="matrix(0.24,0,0,0.24,-388.985,-133.308)"><text x="2025.25px" y="762.265px" style="font-family:'ArialMT', 'Arial', sans-serif;font-size:25px;fill:#8c8c8c;">T<tspan x="2039.6px 2047.92px " y="762.265px 762.265px ">re</tspan>nd 3.</text><text x="2124.37px" y="762.265px" style="font-family:'AppleSDGothicNeo-Regular', 'Apple SD Gothic Neo';font-size:25px;fill:#8c8c8c;">고도화되는</text><text x="2232.5px" y="762.265px" style="font-family:'ArialMT', 'Arial', sans-serif;font-size:25px;fill:#8c8c8c;">...</text></g></g></g></g></svg>