<?xml version="1.0" encoding="UTF-8" standalone="no"?><!DOCTYPE svg PUBLIC "-//W3C//DTD SVG 1.1//EN" "http://www.w3.org/Graphics/SVG/1.1/DTD/svg11.dtd"><svg width="100%" height="100%" viewBox="0 0 162 144" version="1.1" xmlns="http://www.w3.org/2000/svg" xmlns:xlink="http://www.w3.org/1999/xlink" xml:space="preserve" xmlns:serif="http://www.serif.com/" style="fill-rule:evenodd;clip-rule:evenodd;stroke-linejoin:round;stroke-miterlimit:2;"><circle cx="92.285" cy="75" r="68.76" style="fill:#475387;"/><path d="M141.224,15c0,-8.279 -6.722,-15 -15,-15l-111.224,0c-8.279,0 -15,6.721 -15,15l0,30c0,8.279 6.721,15 15,15l111.224,0c8.278,0 15,-6.721 15,-15l0,-30Z" style="fill:#edd892;"/><path d="M99.725,73.98c0,-4.007 -3.253,-7.26 -7.26,-7.26l-83.264,0c-4.007,0 -7.26,3.253 -7.26,7.26l0,14.52c0,4.007 3.253,7.26 7.26,7.26l83.264,0c4.007,0 7.26,-3.253 7.26,-7.26l0,-14.52Z" style="fill:#edd892;"/></svg>