<?xml version="1.0" encoding="iso-8859-1"?>
<!-- Generator: Adobe Illustrator 19.0.0, SVG Export Plug-In . SVG Version: 6.00 Build 0)  -->
<svg version="1.1" id="Capa_1" xmlns="http://www.w3.org/2000/svg" xmlns:xlink="http://www.w3.org/1999/xlink" x="0px" y="0px"
	 viewBox="0 0 512 512" style="enable-background:new 0 0 512 512;" xml:space="preserve">
<g>
	<g>
		<g>
			<path d="M486.4,0H25.6C11.468,0.015,0.015,11.468,0,25.6v460.8c0.015,14.132,11.468,25.585,25.6,25.6h460.8
				c14.132-0.015,25.585-11.468,25.6-25.6V25.6C511.985,11.468,500.532,0.015,486.4,0z M494.933,486.4
				c-0.005,4.711-3.822,8.529-8.533,8.533H25.6c-4.71-0.006-8.527-3.823-8.533-8.533V85.333h477.867V486.4z M494.933,68.267H17.067
				V25.6c0.006-4.71,3.823-8.527,8.533-8.533h460.8c4.711,0.005,8.529,3.822,8.533,8.533V68.267z"/>
			<path d="M36.608,36.608c-3.3,3.365-3.3,8.753,0,12.117c3.365,3.3,8.753,3.3,12.117,0c3.3-3.365,3.3-8.752,0-12.117
				C45.304,33.449,40.029,33.449,36.608,36.608z"/>
			<path d="M81.579,35.583c-0.476-0.324-0.993-0.583-1.538-0.771c-0.484-0.246-1.002-0.417-1.537-0.508
				c-1.663-0.348-3.393-0.171-4.95,0.508c-1.033,0.434-1.984,1.041-2.813,1.796c-3.3,3.365-3.3,8.753,0,12.117
				c0.83,0.752,1.781,1.358,2.813,1.792c1.027,0.438,2.13,0.67,3.246,0.683c0.571-0.016,1.141-0.073,1.704-0.171
				c0.535-0.095,1.053-0.268,1.537-0.513c0.544-0.188,1.062-0.447,1.538-0.771c0.425-0.338,0.85-0.679,1.279-1.021
				c0.341-0.429,0.683-0.854,1.021-1.367c0.34-0.435,0.601-0.925,0.771-1.45c0.245-0.485,0.418-1.003,0.512-1.538
				c0.098-0.563,0.155-1.133,0.171-1.704c-0.033-2.259-0.917-4.422-2.475-6.059C82.429,36.267,82.004,35.925,81.579,35.583z"/>
			<path d="M118.783,39.421c-0.188-0.543-0.448-1.058-0.771-1.533c-0.312-0.448-0.653-0.876-1.021-1.28
				c-2.441-2.461-6.129-3.201-9.331-1.872s-5.281,4.464-5.261,7.931c0.014,3.45,2.096,6.556,5.282,7.879
				c3.187,1.323,6.856,0.606,9.31-1.82c0.366-0.405,0.707-0.833,1.021-1.279c0.324-0.476,0.583-0.993,0.771-1.538
				c0.245-0.485,0.418-1.003,0.512-1.538c0.098-0.563,0.155-1.133,0.171-1.704c-0.02-0.573-0.077-1.143-0.171-1.708
				C119.201,40.424,119.028,39.906,118.783,39.421z"/>
			<path d="M315.733,34.133H196.267c-4.713,0-8.533,3.82-8.533,8.533s3.82,8.533,8.533,8.533h119.467
				c4.713,0,8.533-3.82,8.533-8.533S320.446,34.133,315.733,34.133z"/>
			<path d="M469.333,34.133H460.8c-4.713,0-8.533,3.82-8.533,8.533s3.821,8.533,8.533,8.533h8.533c4.713,0,8.533-3.82,8.533-8.533
				S474.046,34.133,469.333,34.133z"/>
			<path d="M426.667,34.133h-8.533c-4.713,0-8.533,3.82-8.533,8.533s3.82,8.533,8.533,8.533h8.533c4.713,0,8.533-3.82,8.533-8.533
				S431.38,34.133,426.667,34.133z"/>
			<path d="M76.8,196.267c20.265-0.028,37.724-14.283,41.804-34.133h31.462l-11.034,11.034c-2.176,2.151-3.033,5.303-2.247,8.26
				c0.786,2.957,3.096,5.267,6.053,6.053c2.957,0.786,6.109-0.071,8.26-2.247l23.1-23.1h30.6V179.2
				c0.009,9.422,7.645,17.057,17.067,17.067H358.4c9.422-0.009,17.057-7.645,17.067-17.067v-17.067H460.8v102.4H302.2l11.034-11.034
				c2.178-2.151,3.037-5.304,2.251-8.262s-3.097-5.269-6.055-6.055s-6.111,0.073-8.262,2.251l-23.1,23.1H256v-17.067
				c-0.009-9.422-7.645-17.057-17.067-17.067H102.4c-9.422,0.009-17.057,7.645-17.067,17.067v51.2
				c0.009,9.422,7.645,17.057,17.067,17.067h59.733v30.6L151.1,335.3c-3.338-3.296-8.711-3.279-12.029,0.038
				c-3.317,3.317-3.334,8.69-0.038,12.029l23.1,23.1V384H128c-3.232-0.001-6.188,1.825-7.633,4.717l-34.133,68.267
				c-1.322,2.645-1.181,5.787,0.374,8.303c1.555,2.516,4.302,4.047,7.259,4.047h119.467c3.232,0.001,6.188-1.825,7.633-4.717
				l14.708-29.417h119.192l-11.034,11.034c-2.178,2.151-3.037,5.304-2.251,8.262c0.786,2.958,3.097,5.269,6.055,6.055
				s6.111-0.073,8.262-2.251l23.1-23.1h14.396c4.381,21.461,24.3,36.119,46.093,33.917c21.793-2.201,38.378-20.547,38.378-42.451
				s-16.586-40.249-38.378-42.451c-21.793-2.201-41.712,12.456-46.093,33.917H379l-23.1-23.1c-3.338-3.296-8.711-3.28-12.029,0.038
				c-3.317,3.317-3.334,8.69-0.038,12.029l11.033,11.034H244.208L255.1,396.35c1.323-2.645,1.181-5.787-0.374-8.303
				c-1.555-2.516-4.302-4.047-7.259-4.047H179.2v-13.533l23.1-23.1c3.296-3.338,3.28-8.711-0.038-12.029s-8.69-3.334-12.029-0.038
				L179.2,346.333v-30.6h59.733c9.422-0.009,17.057-7.645,17.067-17.067V281.6h22.067l23.1,23.1
				c3.338,3.296,8.711,3.28,12.029-0.038c3.317-3.317,3.334-8.69,0.038-12.029L302.2,281.6h167.133
				c2.263,0.001,4.434-0.898,6.035-2.499c1.6-1.6,2.499-3.771,2.499-6.035V153.6c0.001-2.263-0.898-4.434-2.499-6.035
				c-1.6-1.6-3.771-2.499-6.035-2.499h-93.867V128c-0.009-9.422-7.645-17.057-17.067-17.067H221.867
				c-9.422,0.009-17.057,7.645-17.067,17.067v17.067h-30.6l-23.1-23.1c-3.338-3.296-8.711-3.28-12.029,0.038
				c-3.317,3.317-3.334,8.69-0.038,12.029l11.033,11.034h-31.462c-4.491-22-25.264-36.755-47.515-33.749
				c-22.251,3.005-38.366,22.742-36.86,45.145S54.347,196.267,76.8,196.267z M435.2,401.067c14.138,0,25.6,11.461,25.6,25.6
				s-11.462,25.6-25.6,25.6s-25.6-11.461-25.6-25.6C409.615,412.535,421.068,401.082,435.2,401.067z M233.658,401.067l-25.6,51.2
				H107.675l25.6-51.2H233.658z M102.4,298.667v-51.2h136.533l0.006,25.569l-0.006,0.031l0.006,0.031l0.006,25.569H102.4z
				 M221.867,128H358.4l0.006,25.569L358.4,153.6l0.006,0.031l0.006,25.569H221.867V128z M76.8,128c14.138,0,25.6,11.461,25.6,25.6
				c0,14.138-11.462,25.6-25.6,25.6s-25.6-11.461-25.6-25.6C51.215,139.468,62.668,128.015,76.8,128z"/>
		</g>
	</g>
</g>
<g>
</g>
<g>
</g>
<g>
</g>
<g>
</g>
<g>
</g>
<g>
</g>
<g>
</g>
<g>
</g>
<g>
</g>
<g>
</g>
<g>
</g>
<g>
</g>
<g>
</g>
<g>
</g>
<g>
</g>
</svg>
