<svg height="512pt" viewBox="0 0 512.00007 512" width="512pt" xmlns="http://www.w3.org/2000/svg"><path d="m491.519531 229.121094c2.230469 5.859375 3.386719 12.074218 3.414063 18.34375-.023438 28.269531-22.933594 51.179687-51.199219 51.203125-6.382813.003906-12.710937-1.210938-18.636719-3.585938-9.066406 12.195313-23.082031 19.734375-38.257812 20.574219-15.171875.839844-29.9375-5.101562-40.296875-16.222656-5.96875 16.160156-19.6875 28.21875-36.476563 32.074218-16.792968 3.851563-34.394531-1.019531-46.8125-12.957031-4.765625 20.957031-22.109375 36.710938-43.429687 39.4375-21.320313 2.726563-42.074219-8.152343-51.960938-27.234375-4.636719 1.328125-9.4375 2.015625-14.261719 2.046875-21.753906-.011719-41.125-13.769531-48.300781-34.304687-.9375.085937-1.875.171875-2.902343.171875-18.308594.015625-35.234376-9.757813-44.371094-25.625-23.84375-.792969-43.976563-17.949219-48.546875-41.359375-4.570313-23.414063 7.636719-46.878906 29.429687-56.578125-3.152344-6.730469-4.785156-14.074219-4.777344-21.503907.023438-28.269531 22.933594-51.179687 51.199219-51.203124 2.859375.015624 5.710938.25 8.535157.703124v-.703124c.023437-28.265626 22.933593-51.175782 51.199218-51.199219 7.433594-.007813 14.773438 1.625 21.503906 4.78125 6.988282-15.699219 21.386719-26.84375 38.332032-29.675781 16.949218-2.832032 34.1875 3.023437 45.898437 15.59375 7.480469-20.222657 26.851563-33.574219 48.414063-33.363282 21.558594.210938 40.667968 13.9375 47.75 34.300782 13.140625-8.835938 29.632812-11.085938 44.664062-6.09375 15.027344 4.992187 26.894532 16.664062 32.136719 31.605468.859375-.054687 1.878906-.082031 2.902344-.082031 28.265625.023437 51.175781 22.933594 51.199219 51.199219 0 1.792968-.085938 3.585937-.257813 5.378906 5.75 8.488281 8.808594 18.507812 8.789063 28.757812 0 1.425782-.085938 2.847657-.253907 4.265626 20.8125 18.363281 23.199219 49.972656 5.375 71.253906zm0 0" fill="#ff5364"/><path d="m302.691406 102.398438c-2.425781.003906-4.742187-1.027344-6.359375-2.839844-8.089843-9.050782-19.65625-14.226563-31.796875-14.226563-12.144531 0-23.710937 5.175781-31.800781 14.226563-2.027344 2.304687-5.132813 3.34375-8.136719 2.722656-3.003906-.617188-5.445312-2.804688-6.390625-5.722656-.949219-2.914063-.257812-6.117188 1.8125-8.382813 11.328125-12.667969 27.519531-19.910156 44.515625-19.910156s33.1875 7.242187 44.515625 19.910156c2.246094 2.507813 2.808594 6.101563 1.433594 9.175781-1.375 3.070313-4.425781 5.050782-7.792969 5.046876zm0 0" fill="#df4d60"/><path d="m384 324.265625c-32.972656-.039063-59.695312-26.757813-59.734375-59.730469 0-4.714844 3.820313-8.535156 8.535156-8.535156 4.710938 0 8.53125 3.820312 8.53125 8.535156-.023437 22.195313 16.976563 40.703125 39.09375 42.5625 22.117188 1.859375 41.96875-13.550781 45.648438-35.4375.503906-3.007812 2.574219-5.519531 5.429687-6.585937 2.855469-1.066407 6.0625-.53125 8.414063 1.40625 2.355469 1.941406 3.492187 4.988281 2.988281 7.996093-4.769531 28.796876-29.71875 49.882813-58.90625 49.789063zm0 0" fill="#df4d60"/><path d="m441.878906 298.632812c-5.753906-.210937-11.429687-1.414062-16.78125-3.550781-9.066406 12.195313-23.082031 19.734375-38.257812 20.574219-15.171875.839844-29.9375-5.101562-40.296875-16.222656-7.222657 19.5-25.535157 32.679687-46.320313 33.34375 10.566406 61.015625 77.964844 68.289062 109.378906 68.289062 51.355469 0 71.113282-50.316406 32.277344-102.433594zm0 0" fill="#df4d60"/><path d="m361.738281 489.632812c5.503907-30.4375 9.1875-61.179687 11.035157-92.058593-30.914063-6.191407-65.257813-22.695313-72.546876-64.792969-.363281.007812-.882812.019531-1.558593.019531-13.203125-.007812-25.890625-5.113281-35.414063-14.25-2.289062 10.054688-7.566406 19.1875-15.140625 26.1875 18.648438 18.675781 45.878907 79.75 50.019531 142.734375.550782 8.976563 7.984376 15.980469 16.980469 15.992188h29.867188c8.1875.023437 15.226562-5.789063 16.757812-13.832032zm0 0" fill="#802f34"/><path d="m273.066406 247.464844c-3.492187.003906-6.628906-2.125-7.925781-5.363282l-26.207031-65.527343-26.207032 65.527343c-1.75 4.375-6.714843 6.503907-11.09375 4.757813-4.375-1.75-6.507812-6.714844-4.757812-11.09375l34.132812-85.332031c1.296876-3.242188 4.433594-5.371094 7.925782-5.371094 3.492187 0 6.628906 2.128906 7.925781 5.371094l34.132813 85.332031c1.050781 2.628906.726562 5.609375-.859376 7.953125-1.585937 2.34375-4.234374 3.75-7.066406 3.746094zm0 0" fill="#fdd7ad"/><path d="m262.828125 221.867188h-47.789063c-4.710937 0-8.53125-3.820313-8.53125-8.535157 0-4.710937 3.820313-8.53125 8.53125-8.53125h47.789063c4.710937 0 8.53125 3.820313 8.53125 8.53125 0 4.714844-3.820313 8.535157-8.53125 8.535157zm0 0" fill="#fdd7ad"/><path d="m307.199219 247.464844c-4.710938 0-8.53125-3.820313-8.53125-8.53125v-85.332032c0-4.714843 3.820312-8.535156 8.53125-8.535156 4.714843 0 8.535156 3.820313 8.535156 8.535156v85.332032c0 4.710937-3.820313 8.53125-8.535156 8.53125zm0 0" fill="#fdd7ad"/><path d="m162.132812 426.667969c0 42.414062-34.382812 76.796875-76.800781 76.796875-42.414062 0-76.796875-34.382813-76.796875-76.796875 0-42.417969 34.382813-76.800781 76.796875-76.800781 42.417969 0 76.800781 34.382812 76.800781 76.800781zm0 0" fill="#f0c419"/><g fill="#464f5d"><path d="m162.140625 435.199219c-3.957031.003906-7.402344-2.714844-8.3125-6.566407-.914063-3.855468.945313-7.828124 4.488281-9.597656l41.765625-20.886718c2.902344-1.433594 4.730469-4.394532 4.71875-7.632813v-66.25c0-4.710937 3.820313-8.53125 8.53125-8.53125 4.714844 0 8.535157 3.820313 8.535157 8.53125v66.25c.03125 9.707031-5.457032 18.585937-14.152344 22.902344l-41.765625 20.882812c-1.179688.589844-2.484375.898438-3.808594.898438zm0 0"/><path d="m46.648438 368.875c-3.035157 0-5.847657-1.609375-7.382813-4.234375l-15.675781-26.875c-4.886719-8.457031-4.570313-18.949219.816406-27.097656l52.890625-79.335938c1.691406-2.539062 4.605469-3.980469 7.652344-3.785156 3.042969.195313 5.75 2 7.101562 4.734375 1.351563 2.734375 1.140625 5.984375-.554687 8.519531l-52.886719 79.332031c-1.792969 2.71875-1.898437 6.210938-.277344 9.035157l15.683594 26.875c1.539063 2.636719 1.550781 5.898437.03125 8.546875-1.523437 2.648437-4.34375 4.285156-7.398437 4.285156zm0 0"/><path d="m136.535156 17.066406h-128c-4.714844 0-8.535156-3.820312-8.535156-8.53125 0-4.714844 3.820312-8.535156 8.535156-8.535156h128c4.710938 0 8.53125 3.820312 8.53125 8.535156 0 4.710938-3.820312 8.53125-8.53125 8.53125zm0 0"/><path d="m25.601562 51.199219h-17.066406c-4.714844 0-8.535156-3.820313-8.535156-8.53125 0-4.714844 3.820312-8.535157 8.535156-8.535157h17.066406c4.710938 0 8.53125 3.820313 8.53125 8.535157 0 4.710937-3.820312 8.53125-8.53125 8.53125zm0 0"/><path d="m51.199219 85.332031h-42.664063c-4.714844 0-8.535156-3.820312-8.535156-8.53125 0-4.714843 3.820312-8.535156 8.535156-8.535156h42.664063c4.714843 0 8.535156 3.820313 8.535156 8.535156 0 4.710938-3.820313 8.53125-8.535156 8.53125zm0 0"/><path d="m503.464844 443.734375h-93.863282c-4.714843 0-8.535156-3.820313-8.535156-8.535156 0-4.710938 3.820313-8.53125 8.535156-8.53125h93.863282c4.714844 0 8.535156 3.820312 8.535156 8.53125 0 4.714843-3.820312 8.535156-8.535156 8.535156zm0 0"/><path d="m503.464844 477.867188h-51.199219c-4.710937 0-8.53125-3.820313-8.53125-8.535157 0-4.710937 3.820313-8.53125 8.53125-8.53125h51.199219c4.714844 0 8.535156 3.820313 8.535156 8.53125 0 4.714844-3.820312 8.535157-8.535156 8.535157zm0 0"/><path d="m503.464844 512h-110.929688c-4.714844 0-8.535156-3.820312-8.535156-8.535156 0-4.710938 3.820312-8.53125 8.535156-8.53125h110.929688c4.714844 0 8.535156 3.820312 8.535156 8.53125 0 4.714844-3.820312 8.535156-8.535156 8.535156zm0 0"/><path d="m85.332031 51.199219h-25.597656c-4.714844 0-8.535156-3.820313-8.535156-8.53125 0-4.714844 3.820312-8.535157 8.535156-8.535157h25.597656c4.714844 0 8.535157 3.820313 8.535157 8.535157 0 4.710937-3.820313 8.53125-8.535157 8.53125zm0 0"/><path d="m503.464844 401.066406c-4.710938 0-8.53125-3.820312-8.53125-8.53125v-95.335937c-.007813-2.261719-.90625-4.429688-2.5-6.03125l-51.199219-51.203125c-3.261719-3.34375-3.226563-8.6875.074219-11.988282 3.304687-3.304687 8.648437-3.335937 11.992187-.078124l51.199219 51.203124c4.816406 4.789063 7.515625 11.304688 7.5 18.097657v95.335937c0 2.261719-.898438 4.433594-2.5 6.03125-1.601562 1.601563-3.769531 2.5-6.035156 2.5zm0 0"/></g><path d="m85.332031 349.867188v76.800781h-76.796875c0-42.414063 34.382813-76.796875 76.796875-76.800781zm0 0" fill="#2980ba"/><path d="m162.132812 426.667969c.015626 6.832031-.902343 13.636719-2.730468 20.222656-.1875.898437-.445313 1.785156-.769532 2.644531-.765624 2.390625-1.621093 4.695313-2.558593 7-.960938 2.300782-2.042969 4.550782-3.242188 6.738282-1.132812 2.191406-2.417969 4.300781-3.839843 6.316406-1.355469 2.054687-2.835938 4.019531-4.4375 5.886718-1.535157 1.878907-3.242188 3.753907-4.949219 5.460938l-54.273438-54.269531v-76.800781c42.414063.003906 76.796875 34.386718 76.800781 76.800781zm0 0" fill="#ff5364"/><path d="m230.398438 307.199219c0 9.425781-7.640626 17.066406-17.066407 17.066406s-17.066406-7.640625-17.066406-17.066406 7.640625-17.066407 17.066406-17.066407 17.066407 7.640626 17.066407 17.066407zm0 0" fill="#f0c419"/><path d="m452.265625 221.867188c0 9.425781-7.640625 17.066406-17.066406 17.066406s-17.066407-7.640625-17.066407-17.066406c0-9.425782 7.640626-17.066407 17.066407-17.066407s17.066406 7.640625 17.066406 17.066407zm0 0" fill="#f0c419"/><path d="m110.933594 221.867188c0 9.425781-7.640625 17.066406-17.066406 17.066406-9.425782 0-17.066407-7.640625-17.066407-17.066406 0-9.425782 7.640625-17.066407 17.066407-17.066407 9.425781 0 17.066406 7.640625 17.066406 17.066407zm0 0" fill="#f0c419"/></svg>