<svg height="509pt" viewBox="0 -11 509.78967 509" width="509pt" xmlns="http://www.w3.org/2000/svg"><path d="m.492188 440.542969c1.488281 7.660156 6.414062 14.214843 13.355468 17.78125l52.523438 27.152343c11.707031 6.117188 26.148437 2.28125 33.277344-8.839843l47.507812-73.386719c29.609375 21.085938 52.964844 26.71875 69.074219 26.71875 9.097656.386719 18.128906-1.722656 26.113281-6.101562 19.335938-14.25 34.960938-32.933594 45.570312-54.484376 8.589844-17.195312 11.210938-46.523437 11.550782-75.296874 47.003906 34.070312 116.183594 82.097656 140.878906 88.292968 2.027344.507813 4.113281.765625 6.203125.769532 11.167969-.753907 21.445313-6.367188 28.109375-15.363282 28.738281-32.21875 46.378906-106.980468 26.949219-158.8125-25.464844-68.011718-120.601563-182.707031-166.929688-201.222656-41.933593-16.769531-86.792969-4.636719-126.625 34.089844-41.234375 3.703125-93.960937 24.183594-121.902343 71.347656-4.195313 6.875-7.675782 14.164062-10.382813 21.75-19.882813 34.046875-57.5 119.074219 1.917969 199.886719l-71.585938 84.1875c-5.066406 5.941406-7.132812 13.875-5.605468 21.53125zm215.816406-27.675781c-12.851563 0-33.023438-4.667969-59.878906-23.890626l10.292968-15.890624c15.773438 14.261718 32.398438 27.558593 49.773438 39.816406zm-26.898438-350.957032c-4.75 5.675782-8.667968 10.785156-12.125 15.308594-9.203125 14.25-22.101562 25.730469-37.324218 33.21875-4.21875 2.109375-5.929688 7.234375-3.824219 11.453125 2.109375 4.21875 7.234375 5.929687 11.453125 3.824219 17.554687-8.636719 32.484375-21.796875 43.253906-38.128906 8.296875-11.226563 17.394531-21.835938 27.230469-31.742188 20.371093-20.371094 61.730469-51.664062 110.269531-32.242188 38.835938 15.53125 131.59375 122.746094 157.304688 191.335938 18.515624 49.382812-1.707032 116.769531-23.699219 141.457031-3.738281 4.207031-11.09375 10.972657-17.433594 9.386719-20.257813-5.078125-87.570313-50.859375-145.125-92.945312-.292969-14.027344-.921875-27.136719-1.433594-37.613282-.324219-6.699218-.582031-11.855468-.582031-14.746094 0-2.363281-.160156-6.476562-.367188-11.949218-1.261718-32.707032-4.625-119.601563 16.214844-154.332032 2.324219-4.03125.992188-9.179687-2.996094-11.578124-3.988281-2.394532-9.164062-1.15625-11.628906 2.789062-23.460937 39.097656-20.089844 126.472656-18.636718 163.78125.1875 5.160156.347656 9.042969.347656 11.28125 0 3.054688.257812 8.53125.605468 15.597656 1.453126 29.765625 4.855469 99.464844-8.242187 125.652344-8.621094 17.152344-20.6875 32.339844-35.449219 44.613281-23.546875-15.652343-45.738281-33.261719-66.335937-52.632812-17.941407-16.703125-34.207031-35.113281-48.574219-54.972657-21.296875-27.867187-34.535156-61.046874-38.269531-95.921874-1.863281-20.738282.703125-41.632813 7.527343-61.304688v-.078125c2.367188-6.78125 5.449219-13.292969 9.199219-19.421875 20.058594-31.335938 52.105469-53.0625 88.640625-60.089844zm-122.433594 140.644532v1.484374c3.628907 35.757813 16.621094 69.921876 37.675782 99.046876l-15.582032 18.339843c-24.253906-34.546875-32.316406-77.917969-22.09375-118.871093zm-47.863281 227.507812 95.84375-112.742188c11.949219 15.535157 25.027344 30.171876 39.128907 43.785157l-15.984376 24.6875h-.042968l-.058594.128906-52.710938 81.414063c-2.386718 3.695312-7.191406 4.96875-11.09375 2.945312l-52.515624-27.085938c-2.304688-1.199218-3.941407-3.382812-4.4375-5.9375-.5-2.550781.191406-5.191406 1.878906-7.167968zm0 0"/><path d="m58.441406 433.808594c2.460938.003906 4.804688-1.058594 6.425782-2.910156l59.734374-68.265626c3.105469-3.550781 2.746094-8.945312-.800781-12.050781-3.550781-3.105469-8.945312-2.746093-12.050781.804688l-59.734375 68.265625c-2.207031 2.519531-2.734375 6.097656-1.351563 9.148437 1.386719 3.054688 4.429688 5.011719 7.777344 5.007813zm0 0"/><path d="m374.175781 433.808594c0 14.140625 11.460938 25.601562 25.601563 25.601562 14.136718 0 25.597656-11.460937 25.597656-25.601562 0-14.136719-11.460938-25.597656-25.597656-25.597656-14.140625 0-25.601563 11.460937-25.601563 25.597656zm34.132813 0c0 4.714844-3.820313 8.535156-8.53125 8.535156-4.714844 0-8.535156-3.820312-8.535156-8.535156 0-4.710938 3.820312-8.53125 8.535156-8.53125 4.710937 0 8.53125 3.820312 8.53125 8.53125zm0 0"/><path d="m340.042969 450.875c0 4.714844-3.820313 8.535156-8.535157 8.535156-4.710937 0-8.53125-3.820312-8.53125-8.535156 0-4.710938 3.820313-8.53125 8.53125-8.53125 4.714844 0 8.535157 3.820312 8.535157 8.53125zm0 0"/><path d="m365.640625 374.074219c0 4.714843-3.820313 8.535156-8.53125 8.535156-4.714844 0-8.535156-3.820313-8.535156-8.535156 0-4.710938 3.820312-8.53125 8.535156-8.53125 4.710937 0 8.53125 3.820312 8.53125 8.53125zm0 0"/><path d="m431.84375 331.152344c1.859375.425781 3.761719.628906 5.667969.605468 6.945312-.019531 13.675781-2.390624 19.105469-6.722656 13.242187-10.335937 19.957031-31.171875 19.957031-61.894531 0-4.710937-3.820313-8.53125-8.53125-8.53125-4.714844 0-8.535157 3.820313-8.535157 8.53125 0 32.625-8.207031 44.203125-13.097656 48.207031-2.910156 2.523438-6.757812 3.695313-10.582031 3.214844-4.523437-.960938-8.988281 1.859375-10.070313 6.355469-1.082031 4.496093 1.617188 9.035156 6.085938 10.234375zm0 0"/></svg>