<svg height="512pt" viewBox="0 0 512 512" width="512pt" xmlns="http://www.w3.org/2000/svg"><path d="m147.792969 105.902344c-13.453125 6.441406-22.746094 20.183594-22.746094 36.097656s9.292969 29.65625 22.746094 36.097656c13.457031-6.441406 22.75-20.183594 22.75-36.097656s-9.292969-29.65625-22.75-36.097656zm0 0" fill="#ff4863" fill-rule="evenodd"/><path d="m408.210938 225.90625c-13.457032 6.4375-22.75 20.175781-22.75 36.09375 0 15.914062 9.292968 29.652344 22.75 36.09375 13.453124-6.441406 22.75-20.179688 22.75-36.09375 0-15.917969-9.296876-29.65625-22.75-36.09375zm0 0" fill="#59c671" fill-rule="evenodd"/><path d="m258.765625 345.898438c-13.453125 6.441406-22.746094 20.183593-22.746094 36.097656 0 15.914062 9.292969 29.65625 22.746094 36.097656 13.457031-6.441406 22.753906-20.183594 22.753906-36.097656-.003906-15.914063-9.296875-29.65625-22.753906-36.097656zm0 0" fill="#ffd371" fill-rule="evenodd"/><g fill="#000001"><path d="m10 20.234375c5.523438 0 10-4.476563 10-10v-.234375c0-5.523438-4.476562-10-10-10s-10 4.476562-10 10v.234375c0 5.523437 4.476562 10 10 10zm0 0"/><path d="m502 491.992188h-.234375c-5.523437 0-10 4.476562-10 10 0 5.523437 4.476563 10 10 10h.234375c5.523438 0 10-4.476563 10-10 0-5.523438-4.476562-10-10-10zm0 0"/><path d="m81.550781 152c4.648438 22.796875 24.851563 40 48.996094 40s44.34375-17.203125 48.988281-40h293.5c5.519532 0 9.996094-4.476562 9.996094-10s-4.476562-10-9.996094-10h-293.5c-4.640625-22.792969-24.84375-40-48.988281-40-24.148437 0-44.351563 17.207031-48.996094 40h-61.550781v-93.035156c0-5.523438-4.476562-10-10-10s-10 4.476562-10 10l.00390625 463.027344c0 5.523437 4.47656275 10 9.99609375 10h463.035156c5.519532 0 9.996094-4.476563 9.996094-10 0-5.523438-4.476562-10-9.996094-10h-453.035156v-99.996094h172.527344c4.644531 22.792968 24.847656 39.996094 48.992187 39.996094s44.34375-17.203126 48.988281-39.996094h182.523438c5.523438 0 10-4.476563 10-10 0-5.519532-4.476562-10-10-10h-182.519531c-4.644531-22.792969-24.847657-40-48.992188-40-24.148437 0-44.351562 17.207031-48.992187 40h-172.527344v-99.996094h321.964844c4.648437 22.792969 24.851562 39.996094 48.996094 39.996094 24.144531 0 44.34375-17.203125 48.992187-39.996094h33.078125c5.523438 0 10-4.476562 10-10s-4.476562-10-10-10h-33.078125c-4.644531-22.796875-24.847656-40.003906-48.992187-40.003906-24.148438 0-44.351563 17.207031-48.996094 40.003906h-321.964844v-100zm48.996094-40c16.539063 0 29.996094 13.453125 29.996094 29.996094 0 16.542968-13.457031 30.003906-29.996094 30.003906-16.542969 0-30-13.460938-30-30.003906 0-16.542969 13.457031-29.996094 30-29.996094zm110.972656 239.996094c16.539063 0 29.996094 13.457031 29.996094 29.996094 0 16.542968-13.457031 30-29.996094 30-16.542969 0-30-13.457032-30-30 0-16.539063 13.457031-29.996094 30-29.996094zm149.441407-120c16.542968 0 30 13.457031 30 30 0 16.542968-13.457032 30.003906-30 30.003906-16.542969 0-30-13.460938-30-30.003906 0-16.542969 13.457031-30 30-30zm0 0"/><path d="m473.035156 0h-92.128906c-5.523438 0-10 4.476562-10 10s4.476562 10 10 10h92.128906c5.519532 0 9.996094-4.476562 9.996094-10s-4.476562-10-9.996094-10zm0 0"/><path d="m473.035156 39.996094h-42.226562c-5.519532 0-10 4.476562-10 10 0 5.519531 4.480468 10 10 10h42.226562c5.519532 0 9.996094-4.480469 9.996094-10 0-5.523438-4.476562-10-9.996094-10zm0 0"/><path d="m401.726562 59.996094c5.519532 0 10-4.480469 10-10 0-5.523438-4.480468-10-10-10h-.476562c-5.519531 0-9.996094 4.476562-9.996094 10 0 5.519531 4.476563 10 9.996094 10zm0 0"/></g></svg>